REM DIRINDEX 1\8,1\2\11,1\3\12,1\3\14,1\5\15,1\5\16,1\6\17,1\6\18,1\4\19,1\4\20,1\4\21,1\4\22,1\7\23,1\7\24,1\7\25,1\2\9\26,1\2\9\27,1\2\10\28,1\2\10\29,1\2\10\30,1\2\10\31,1\2\10\32,1\3\13\33,1\3\13\34,1\3\13\35
REM DIRNAME cjc123,folder01,folder02,folder03,folder04,folder05,folder06,folder07,folder08,folder09,folder10,folder11,folder12,folder13,folder14,folder15,folder16,folder17,folder18,folder19,folder20,folder21,folder22,folder23,folder24,folder25,folder26,folder27,folder28,folder29,folder30,folder31,folder32,folder33,folder34
TITLE ""
FILE "2-44 044_UNIT4_SET3.mp3" MP3
  TRACK 01 AUDIO
    TITLE "11:cjc123_5098"
    INDEX 01 00:00:00
  TRACK 02 AUDIO
    TITLE "0:"
    INDEX 01 00:02:47
  TRACK 03 AUDIO
    TITLE "28:cjc123_5099"
    INDEX 01 00:03:21
  TRACK 04 AUDIO
    TITLE "0:"
    INDEX 01 00:04:38
  TRACK 05 AUDIO
    TITLE "29:cjc123_5100"
    INDEX 01 00:04:50
  TRACK 06 AUDIO
    TITLE "0:"
    INDEX 01 00:05:61
  TRACK 07 AUDIO
    TITLE "30:cjc123_5101"
    INDEX 01 00:06:00
  TRACK 08 AUDIO
    TITLE "0:"
    INDEX 01 00:07:11
  TRACK 09 AUDIO
    TITLE "31:cjc123_5102"
    INDEX 01 00:07:56
  TRACK 10 AUDIO
    TITLE "0:"
    INDEX 01 00:11:70
  TRACK 11 AUDIO
    TITLE "32:cjc123_5103"
    INDEX 01 00:12:26
  TRACK 12 AUDIO
    TITLE "0:"
    INDEX 01 00:16:44
  TRACK 13 AUDIO
    TITLE "28:cjc123_5104"
    INDEX 01 00:17:18
  TRACK 14 AUDIO
    TITLE "0:"
    INDEX 01 00:18:19
  TRACK 15 AUDIO
    TITLE "29:cjc123_5105"
    INDEX 01 00:18:50
  TRACK 16 AUDIO
    TITLE "0:"
    INDEX 01 00:20:12
  TRACK 17 AUDIO
    TITLE "30:cjc123_5106"
    INDEX 01 00:20:26
  TRACK 18 AUDIO
    TITLE "0:"
    INDEX 01 00:21:27
  TRACK 19 AUDIO
    TITLE "31:cjc123_5107"
    INDEX 01 00:22:01
  TRACK 20 AUDIO
    TITLE "0:"
    INDEX 01 00:26:09
  TRACK 21 AUDIO
    TITLE "32:cjc123_5108"
    INDEX 01 00:26:52
  TRACK 22 AUDIO
    TITLE "0:"
    INDEX 01 00:31:49
  TRACK 23 AUDIO
    TITLE "28:cjc123_5109"
    INDEX 01 00:32:25
  TRACK 24 AUDIO
    TITLE "0:"
    INDEX 01 00:33:58
  TRACK 25 AUDIO
    TITLE "29:cjc123_5110"
    INDEX 01 00:34:00
  TRACK 26 AUDIO
    TITLE "0:"
    INDEX 01 00:35:35
  TRACK 27 AUDIO
    TITLE "30:cjc123_5111"
    INDEX 01 00:35:57
  TRACK 28 AUDIO
    TITLE "0:"
    INDEX 01 00:37:03
  TRACK 29 AUDIO
    TITLE "31:cjc123_5112"
    INDEX 01 00:37:52
  TRACK 30 AUDIO
    TITLE "0:"
    INDEX 01 00:42:06
  TRACK 31 AUDIO
    TITLE "32:cjc123_5113"
    INDEX 01 00:42:45
  TRACK 32 AUDIO
    TITLE "0:"
    INDEX 01 00:47:40
  TRACK 33 AUDIO
    TITLE "28:cjc123_5114"
    INDEX 01 00:48:16
  TRACK 34 AUDIO
    TITLE "0:"
    INDEX 01 00:49:31
  TRACK 35 AUDIO
    TITLE "29:cjc123_5115"
    INDEX 01 00:49:53
  TRACK 36 AUDIO
    TITLE "0:"
    INDEX 01 00:50:70
  TRACK 37 AUDIO
    TITLE "30:cjc123_5116"
    INDEX 01 00:51:18
  TRACK 38 AUDIO
    TITLE "0:"
    INDEX 01 00:52:26
  TRACK 39 AUDIO
    TITLE "31:cjc123_5117"
    INDEX 01 00:53:02
  TRACK 40 AUDIO
    TITLE "0:"
    INDEX 01 00:56:47
  TRACK 41 AUDIO
    TITLE "32:cjc123_5118"
    INDEX 01 00:57:05
  TRACK 42 AUDIO
    TITLE "0:"
    INDEX 01 01:00:35
  TRACK 43 AUDIO
    TITLE "28:cjc123_5119"
    INDEX 01 01:01:09
  TRACK 44 AUDIO
    TITLE "0:"
    INDEX 01 01:02:22
  TRACK 45 AUDIO
    TITLE "29:cjc123_5120"
    INDEX 01 01:02:48
  TRACK 46 AUDIO
    TITLE "0:"
    INDEX 01 01:04:15
  TRACK 47 AUDIO
    TITLE "30:cjc123_5121"
    INDEX 01 01:04:35
  TRACK 48 AUDIO
    TITLE "0:"
    INDEX 01 01:05:46
  TRACK 49 AUDIO
    TITLE "31:cjc123_5122"
    INDEX 01 01:06:20
  TRACK 50 AUDIO
    TITLE "0:"
    INDEX 01 01:10:53
  TRACK 51 AUDIO
    TITLE "32:cjc123_5123"
    INDEX 01 01:11:41
  TRACK 52 AUDIO
    TITLE "0:"
    INDEX 01 01:16:61
  TRACK 53 AUDIO
    TITLE "28:cjc123_5124"
    INDEX 01 01:17:06
  TRACK 54 AUDIO
    TITLE "0:"
    INDEX 01 01:18:06
  TRACK 55 AUDIO
    TITLE "29:cjc123_5125"
    INDEX 01 01:18:41
  TRACK 56 AUDIO
    TITLE "0:"
    INDEX 01 01:20:10
  TRACK 57 AUDIO
    TITLE "30:cjc123_5126"
    INDEX 01 01:20:26
  TRACK 58 AUDIO
    TITLE "0:"
    INDEX 01 01:21:29
  TRACK 59 AUDIO
    TITLE "31:cjc123_5127"
    INDEX 01 01:22:01
  TRACK 60 AUDIO
    TITLE "0:"
    INDEX 01 01:27:22
  TRACK 61 AUDIO
    TITLE "32:cjc123_5128"
    INDEX 01 01:27:63
  TRACK 62 AUDIO
    TITLE "0:"
    INDEX 01 01:33:27
  TRACK 63 AUDIO
    TITLE "28:cjc123_5129"
    INDEX 01 01:34:03
  TRACK 64 AUDIO
    TITLE "0:"
    INDEX 01 01:35:27
  TRACK 65 AUDIO
    TITLE "29:cjc123_5130"
    INDEX 01 01:35:45
  TRACK 66 AUDIO
    TITLE "0:"
    INDEX 01 01:36:74
  TRACK 67 AUDIO
    TITLE "30:cjc123_5131"
    INDEX 01 01:37:21
  TRACK 68 AUDIO
    TITLE "0:"
    INDEX 01 01:38:40
  TRACK 69 AUDIO
    TITLE "31:cjc123_5132"
    INDEX 01 01:39:08
  TRACK 70 AUDIO
    TITLE "0:"
    INDEX 01 01:44:73
  TRACK 71 AUDIO
    TITLE "32:cjc123_5133"
    INDEX 01 01:45:34
  TRACK 72 AUDIO
    TITLE "0:"
    INDEX 01 01:52:38
  TRACK 73 AUDIO
    TITLE "28:cjc123_5134"
    INDEX 01 01:53:12
  TRACK 74 AUDIO
    TITLE "0:"
    INDEX 01 01:54:23
  TRACK 75 AUDIO
    TITLE "29:cjc123_5135"
    INDEX 01 01:54:46
  TRACK 76 AUDIO
    TITLE "0:"
    INDEX 01 01:55:62
  TRACK 77 AUDIO
    TITLE "30:cjc123_5136"
    INDEX 01 01:56:04
  TRACK 78 AUDIO
    TITLE "0:"
    INDEX 01 01:57:04
  TRACK 79 AUDIO
    TITLE "31:cjc123_5137"
    INDEX 01 01:57:64
  TRACK 80 AUDIO
    TITLE "0:"
    INDEX 01 02:03:24
  TRACK 81 AUDIO
    TITLE "32:cjc123_5138"
    INDEX 01 02:04:13
  TRACK 82 AUDIO
    TITLE "0:"
    INDEX 01 02:09:38
  TRACK 83 AUDIO
    TITLE "28:cjc123_5139"
    INDEX 01 02:09:60
  TRACK 84 AUDIO
    TITLE "0:"
    INDEX 01 02:10:67
  TRACK 85 AUDIO
    TITLE "29:cjc123_5140"
    INDEX 01 02:11:17
  TRACK 86 AUDIO
    TITLE "0:"
    INDEX 01 02:12:40
  TRACK 87 AUDIO
    TITLE "30:cjc123_5141"
    INDEX 01 02:12:60
  TRACK 88 AUDIO
    TITLE "0:"
    INDEX 01 02:13:69
  TRACK 89 AUDIO
    TITLE "31:cjc123_5142"
    INDEX 01 02:14:63
  TRACK 90 AUDIO
    TITLE "0:"
    INDEX 01 02:19:37
  TRACK 91 AUDIO
    TITLE "32:cjc123_5143"
    INDEX 01 02:19:52
  TRACK 92 AUDIO
    TITLE "0:"
    INDEX 01 02:26:09
  TRACK 93 AUDIO
    TITLE "28:cjc123_5144"
    INDEX 01 02:27:16
  TRACK 94 AUDIO
    TITLE "0:"
    INDEX 01 02:28:24
  TRACK 95 AUDIO
    TITLE "29:cjc123_5145"
    INDEX 01 02:28:63
  TRACK 96 AUDIO
    TITLE "0:"
    INDEX 01 02:29:64
  TRACK 97 AUDIO
    TITLE "30:cjc123_5146"
    INDEX 01 02:30:05
  TRACK 98 AUDIO
    TITLE "0:"
    INDEX 01 02:31:20
  TRACK 99 AUDIO
    TITLE "31:cjc123_5147"
    INDEX 01 02:31:69
  TRACK 100 AUDIO
    TITLE "0:"
    INDEX 01 02:36:47
  TRACK 101 AUDIO
    TITLE "32:cjc123_5148"
    INDEX 01 02:37:48
  TRACK 102 AUDIO
    TITLE "0:"
    INDEX 01 02:43:06
  TRACK 103 AUDIO
    TITLE "28:cjc123_5149"
    INDEX 01 02:43:45
  TRACK 104 AUDIO
    TITLE "0:"
    INDEX 01 02:44:58
  TRACK 105 AUDIO
    TITLE "29:cjc123_5150"
    INDEX 01 02:45:09
  TRACK 106 AUDIO
    TITLE "0:"
    INDEX 01 02:46:18
  TRACK 107 AUDIO
    TITLE "30:cjc123_5151"
    INDEX 01 02:46:33
  TRACK 108 AUDIO
    TITLE "0:"
    INDEX 01 02:47:51
  TRACK 109 AUDIO
    TITLE "31:cjc123_5152"
    INDEX 01 02:48:24
  TRACK 110 AUDIO
    TITLE "0:"
    INDEX 01 02:51:23
  TRACK 111 AUDIO
    TITLE "32:cjc123_5153"
    INDEX 01 02:51:60
  TRACK 112 AUDIO
    TITLE "0:"
    INDEX 01 02:54:60
  TRACK 113 AUDIO
    TITLE "28:cjc123_5154"
    INDEX 01 02:55:32
  TRACK 114 AUDIO
    TITLE "0:"
    INDEX 01 02:57:02
  TRACK 115 AUDIO
    TITLE "29:cjc123_5155"
    INDEX 01 02:57:25
  TRACK 116 AUDIO
    TITLE "0:"
    INDEX 01 02:58:62
  TRACK 117 AUDIO
    TITLE "30:cjc123_5156"
    INDEX 01 02:59:03
  TRACK 118 AUDIO
    TITLE "0:"
    INDEX 01 03:00:65
  TRACK 119 AUDIO
    TITLE "31:cjc123_5157"
    INDEX 01 03:01:43
  TRACK 120 AUDIO
    TITLE "0:"
    INDEX 01 03:06:50
  TRACK 121 AUDIO
    TITLE "32:cjc123_5158"
    INDEX 01 03:07:16
  TRACK 122 AUDIO
    TITLE "0:"
    INDEX 01 03:12:39
  TRACK 123 AUDIO
    TITLE "28:cjc123_5159"
    INDEX 01 03:13:17
  TRACK 124 AUDIO
    TITLE "0:"
    INDEX 01 03:14:24
  TRACK 125 AUDIO
    TITLE "29:cjc123_5160"
    INDEX 01 03:14:42
  TRACK 126 AUDIO
    TITLE "0:"
    INDEX 01 03:15:45
  TRACK 127 AUDIO
    TITLE "30:cjc123_5161"
    INDEX 01 03:15:66
  TRACK 128 AUDIO
    TITLE "0:"
    INDEX 01 03:16:62
  TRACK 129 AUDIO
    TITLE "31:cjc123_5162"
    INDEX 01 03:17:54
  TRACK 130 AUDIO
    TITLE "0:"
    INDEX 01 03:21:06
  TRACK 131 AUDIO
    TITLE "32:cjc123_5163"
    INDEX 01 03:21:47
  TRACK 132 AUDIO
    TITLE "0:"
    INDEX 01 03:24:67
  TRACK 133 AUDIO
    TITLE "28:cjc123_5164"
    INDEX 01 03:25:24
  TRACK 134 AUDIO
    TITLE "0:"
    INDEX 01 03:26:27
  TRACK 135 AUDIO
    TITLE "29:cjc123_5165"
    INDEX 01 03:26:54
  TRACK 136 AUDIO
    TITLE "0:"
    INDEX 01 03:27:52
  TRACK 137 AUDIO
    TITLE "30:cjc123_5166"
    INDEX 01 03:27:74
  TRACK 138 AUDIO
    TITLE "0:"
    INDEX 01 03:29:00
  TRACK 139 AUDIO
    TITLE "31:cjc123_5167"
    INDEX 01 03:30:09
  TRACK 140 AUDIO
    TITLE "0:"
    INDEX 01 03:33:47
  TRACK 141 AUDIO
    TITLE "32:cjc123_5168"
    INDEX 01 03:34:25
  TRACK 142 AUDIO
    TITLE "0:"
    INDEX 01 03:37:70
  TRACK 143 AUDIO
    TITLE "28:cjc123_5169"
    INDEX 01 03:38:48
  TRACK 144 AUDIO
    TITLE "0:"
    INDEX 01 03:39:49
  TRACK 145 AUDIO
    TITLE "29:cjc123_5170"
    INDEX 01 03:40:08
  TRACK 146 AUDIO
    TITLE "0:"
    INDEX 01 03:41:38
  TRACK 147 AUDIO
    TITLE "30:cjc123_5171"
    INDEX 01 03:41:54
  TRACK 148 AUDIO
    TITLE "0:"
    INDEX 01 03:42:59
  TRACK 149 AUDIO
    TITLE "31:cjc123_5172"
    INDEX 01 03:43:43
  TRACK 150 AUDIO
    TITLE "0:"
    INDEX 01 03:46:28
  TRACK 151 AUDIO
    TITLE "32:cjc123_5173"
    INDEX 01 03:46:53
  TRACK 152 AUDIO
    TITLE "0:"
    INDEX 01 03:49:28
